<svg width="24" height="24" fill="none" xmlns="http://www.w3.org/2000/svg"><g clip-path="url(#clip0_145_116)" fill="#fff"><path d="M18.85 5.55A1.5 1.5 0 0017.7 5h-.6l.15-.85a1.55 1.55 0 00-.3-1.15 1.6 1.6 0 00-1.1-.5H3.9a1 1 0 000 2h11.25l-2 11.45a3.403 3.403 0 00-.5 1.05h-2.3a3.5 3.5 0 00-6.7 0H3.1l.25-1.45a1 1 0 00-.8-1.15 1 1 0 00-1.15.8L1 17.35a1.4 1.4 0 00.35 1.15 1.4 1.4 0 001.05.5h1.25a3.5 3.5 0 006.7 0h2.3a3.5 3.5 0 006.7 0h1a1.6 1.6 0 001.55-1.35l1.1-6.4-4.15-5.7zM7 19.5a1.5 1.5 0 110-3 1.5 1.5 0 010 3zM16.75 7h.65l2.95 4h-4.3l.7-4zM16 19.5a1.5 1.5 0 110-3 1.5 1.5 0 010 3zm4-2.5h-.65A3.5 3.5 0 0016 14.5h-.55l.25-1.55h4.95L20 17z"/><path d="M2 7.5h5a1 1 0 000-2H2a1 1 0 000 2zm5.5 2a1 1 0 00-1-1h-4a1 1 0 000 2h4a1 1 0 001-1zm-4.5 2a1 1 0 000 2h3a1 1 0 000-2H3z"/></g><defs><clipPath id="clip0_145_116"><path fill="#fff" d="M0 0h24v24H0z"/></clipPath></defs></svg>