<svg width="48" height="48" fill="none" xmlns="http://www.w3.org/2000/svg"><g clip-path="url(#clip0_145_61)"><path d="M24.768 19.2a.813.813 0 00-.555.243l-4.221 4.208-2.6-2.592c-.728-.758-1.904.413-1.144 1.14l3.173 3.164a.81.81 0 001.144 0l4.792-4.779c.528-.512.139-1.384-.587-1.384h-.002zM.8 25.6h4.8c.443 0 .8.357.8.8 0 .443-.357.8-.8.8H.8a.798.798 0 01-.8-.8c0-.443.357-.8.8-.8zm0-6.4h4.8c.443 0 .8.357.8.8 0 .443-.357.8-.8.8H.8A.798.798 0 010 20c0-.443.357-.8.8-.8zm0-6.4h4.8c.443 0 .8.357.8.8 0 .443-.357.8-.8.8H.8a.798.798 0 01-.8-.8c0-.443.357-.8.8-.8zm38.4 17.6c-2.2 0-4 1.8-4 4s1.8 4 4 4 4-1.8 4-4-1.8-4-4-4zm0 1.6a2.39 2.39 0 012.4 2.4 2.39 2.39 0 01-2.4 2.4 2.389 2.389 0 01-2.4-2.4 2.39 2.39 0 012.4-2.4zm-20.8-1.6c-2.2 0-4 1.8-4 4s1.8 4 4 4 4-1.8 4-4-1.8-4-4-4zm0 1.6a2.39 2.39 0 012.4 2.4 2.39 2.39 0 01-2.4 2.4 2.389 2.389 0 01-2.4-2.4 2.39 2.39 0 012.4-2.4zm-8-22.4A2.413 2.413 0 008 12v17.6c0 1.315 1.085 2.4 2.4 2.4h3.2c1.082.016 1.082-1.616 0-1.6h-3.2a.78.78 0 01-.8-.8V12c0-.458.342-.8.8-.8h20.8c.458 0 .8.342.8.8v18.4h-8.8c-1.056 0-1.037 1.616 0 1.6h11.2c1.056 0 1.046-1.6 0-1.6h-.8V16h6.763l6.037 9.434V29.6a.78.78 0 01-.8.8H44c-1.046 0-1.046 1.6 0 1.6h1.6c1.315 0 2.4-1.085 2.4-2.4v-4.4a.808.808 0 00-.125-.432l-6.4-10a.801.801 0 00-.675-.368h-7.2V12c0-1.315-1.085-2.4-2.4-2.4H10.4z" fill="#373737"/></g><defs><clipPath id="clip0_145_61"><path fill="#fff" d="M0 0h48v48H0z"/></clipPath></defs></svg>