<svg width="173" height="42" fill="none" xmlns="http://www.w3.org/2000/svg"><g clip-path="url(#clip0_145_44)"><path fill-rule="evenodd" clip-rule="evenodd" d="M10.778 8.466c.216-.486.699-.8 1.23-.8h10.637a1.347 1.347 0 011.205 1.95l-3.026 6.05h4.477c1.2 0 1.8 1.451.953 2.3L10.315 33.903c-1.005 1.005-2.679-.03-2.23-1.378l3.397-10.192H6.687a1.347 1.347 0 01-1.23-1.893l5.321-11.974z" fill="#FFB841"/></g><path d="M44.288 31.352c-1.536 0-2.784-.213-3.744-.64-.939-.427-1.664-1.013-2.176-1.76-.512-.768-.853-1.675-1.024-2.72a24.049 24.049 0 01-.288-3.456h4.48c.021 1.984.245 3.37.672 4.16.448.79 1.163 1.184 2.144 1.184.619 0 1.12-.15 1.504-.448.405-.299.725-.736.96-1.312.235-.576.395-1.301.48-2.176.085-.875.139-1.888.16-3.04h-5.184v-3.712h5.152c-.064-2.176-.32-3.787-.768-4.832-.427-1.045-1.195-1.568-2.304-1.568-.896 0-1.557.33-1.984.992-.405.661-.63 1.728-.672 3.2h-4.48c.021-1.216.16-2.293.416-3.232.256-.939.661-1.717 1.216-2.336.576-.64 1.312-1.12 2.208-1.44.896-.341 1.995-.512 3.296-.512 1.835 0 3.264.352 4.288 1.056a6.076 6.076 0 012.304 2.72c.512 1.13.821 2.41.928 3.84.128 1.43.192 2.88.192 4.352 0 1.472-.064 2.912-.192 4.32-.107 1.408-.416 2.656-.928 3.744a6.16 6.16 0 01-2.336 2.624c-1.045.661-2.485.992-4.32.992zM54.66 13.784h4.416v6.368H63.3v-6.368h4.416V31H63.3v-7.328h-4.224V31H54.66V13.784zm22.016 17.568c-1.6 0-2.849-.267-3.745-.8-.895-.555-1.557-1.259-1.983-2.112-.427-.875-.694-1.856-.8-2.944a41.744 41.744 0 01-.129-3.264c0-1.152.075-2.261.224-3.328.171-1.067.491-2.016.96-2.848.491-.832 1.184-1.493 2.08-1.984.897-.49 2.091-.736 3.585-.736 1.28 0 2.325.213 3.136.64a4.59 4.59 0 011.951 1.76c.47.747.79 1.664.96 2.752.171 1.067.256 2.261.256 3.584v.992h-8.736v1.376c0 .512.032 1.013.096 1.504.086.47.214.896.384 1.28.171.363.395.661.672.896.278.213.62.32 1.025.32.746 0 1.29-.267 1.632-.8.34-.533.576-1.344.704-2.432h3.968c-.086 2.005-.62 3.53-1.6 4.576-.96 1.045-2.507 1.568-4.64 1.568zm2.272-10.912a18.05 18.05 0 00-.128-1.728c-.064-.512-.182-.939-.352-1.28-.15-.363-.374-.63-.672-.8-.278-.192-.64-.288-1.089-.288-.447 0-.82.107-1.12.32a2.08 2.08 0 00-.672.8 4.09 4.09 0 00-.384 1.088c-.064.405-.096.81-.096 1.216v.672h4.513zm6.524-6.656h4.224v1.824h.064c.49-.81 1.035-1.387 1.632-1.728.619-.363 1.376-.544 2.272-.544 1.813 0 3.147.715 4 2.144.853 1.408 1.28 3.712 1.28 6.912 0 3.2-.427 5.493-1.28 6.88-.853 1.387-2.187 2.08-4 2.08-.832 0-1.547-.15-2.144-.448-.576-.32-1.099-.821-1.568-1.504h-.064v7.136h-4.416V13.784zm6.752 14.272c.96 0 1.579-.47 1.856-1.408.299-.96.448-2.379.448-4.256 0-1.877-.15-3.285-.448-4.224-.277-.96-.896-1.44-1.856-1.44-.981 0-1.621.48-1.92 1.44-.277.939-.416 2.347-.416 4.224 0 1.877.139 3.296.416 4.256.299.939.939 1.408 1.92 1.408zm9.344-14.272h10.528v3.328h-6.112V31h-4.416V13.784zm18.139 17.568c-1.6 0-2.848-.267-3.744-.8-.896-.555-1.558-1.259-1.984-2.112-.427-.875-.694-1.856-.8-2.944a41.405 41.405 0 01-.128-3.264c0-1.152.074-2.261.224-3.328.17-1.067.49-2.016.96-2.848.49-.832 1.184-1.493 2.08-1.984.896-.49 2.09-.736 3.584-.736 1.28 0 2.325.213 3.136.64a4.595 4.595 0 011.952 1.76c.469.747.789 1.664.96 2.752.17 1.067.256 2.261.256 3.584v.992h-8.736v1.376c0 .512.032 1.013.096 1.504.085.47.213.896.384 1.28.17.363.394.661.672.896.277.213.618.32 1.024.32.746 0 1.29-.267 1.632-.8.341-.533.576-1.344.704-2.432h3.968c-.086 2.005-.619 3.53-1.6 4.576-.96 1.045-2.507 1.568-4.64 1.568zm2.272-10.912a18.282 18.282 0 00-.128-1.728c-.064-.512-.182-.939-.352-1.28-.15-.363-.374-.63-.672-.8-.278-.192-.64-.288-1.088-.288-.448 0-.822.107-1.12.32a2.067 2.067 0 00-.672.8c-.171.32-.299.683-.384 1.088-.064.405-.096.81-.096 1.216v.672h4.512zm9.564-3.328h-4.384v-3.328h13.152v3.328h-4.384V31h-4.384V17.112zm10.367-3.328h4.16v10.848l4.672-10.848h4.672V31h-4.192V20.216L146.55 31h-4.64V13.784zm16.437 0h4.416v7.104l4.544-7.104h4.8l-4.928 7.136L172.811 31h-4.896l-3.456-6.656-1.696 2.368V31h-4.416V13.784z" fill="#373737"/><path fill="#E04D4D" d="M36 39h137v3H36z"/><defs><clipPath id="clip0_145_44"><path fill="#fff" transform="translate(0 5)" d="M0 0h32v32H0z"/></clipPath></defs></svg>