<svg width="24" height="24" viewBox="0 0 24 24" fill="none" xmlns="http://www.w3.org/2000/svg">
<path fill-rule="evenodd" clip-rule="evenodd" d="M3 6C3 4.34315 4.34315 3 6 3H16C16.5523 3 17 3.44772 17 4C17 4.55228 16.5523 5 16 5H6C5.44771 5 5 5.44771 5 6V18C5 18.5523 5.44771 19 6 19H18C18.5523 19 19 18.5523 19 18V12C19 11.4477 19.4477 11 20 11C20.5523 11 21 11.4477 21 12V18C21 19.6569 19.6569 21 18 21H6C4.34316 21 3 19.6569 3 18V6ZM20.2929 4.29289C20.6834 3.90237 21.3166 3.90237 21.7071 4.29289C22.0976 4.68342 22.0976 5.31658 21.7071 5.70711L12.7071 14.7071C12.3166 15.0976 11.6834 15.0976 11.2929 14.7071L8.29289 11.7071C7.90237 11.3166 7.90237 10.6834 8.29289 10.2929C8.68342 9.90237 9.31658 9.90237 9.70711 10.2929L12 12.5858L20.2929 4.29289Z" fill="white"/>
</svg>
