<svg width="24" height="24" viewBox="0 0 24 24" fill="none" xmlns="http://www.w3.org/2000/svg">
<path fill-rule="evenodd" clip-rule="evenodd" d="M13.3981 1.08269C13.8053 1.25946 14.0472 1.68353 13.9922 2.12403L13.1327 8.99999L19.3277 8.99999C19.5686 8.99995 19.8127 8.9999 20.0121 9.01796C20.2007 9.03503 20.5618 9.0802 20.8749 9.33315C20.875 9.33319 20.875 9.33323 20.8751 9.33327C21.234 9.62324 21.4391 10.0619 21.4322 10.5225L21.4322 10.5228C21.426 10.9253 21.2296 11.2316 21.1219 11.3875C21.0081 11.5523 20.8517 11.7399 20.6973 11.9251C20.6897 11.9342 20.6821 11.9433 20.6746 11.9523L11.7681 22.6402C11.4839 22.9812 11.0089 23.0941 10.6017 22.9173C10.1945 22.7405 9.95254 22.3165 10.0076 21.876L10.8671 15L4.6721 15C4.4311 15 4.18701 15.0001 3.98758 14.982C3.79899 14.965 3.43782 14.9198 3.12461 14.6667L3.12453 14.6666C2.76609 14.3769 2.56059 13.9384 2.56755 13.4774C2.57363 13.0748 2.77008 12.7684 2.87776 12.6125C2.99164 12.4477 3.14805 12.2601 3.30245 12.0749C3.31 12.0658 3.31756 12.0568 3.3251 12.0477C3.32512 12.0477 3.32513 12.0477 3.32515 12.0476L12.2317 1.35981C12.5159 1.01878 12.9909 0.905925 13.3981 1.08269ZM5.13494 13H11.9999C12.2867 13 12.5597 13.1232 12.7496 13.3382C12.9394 13.5532 13.0277 13.8394 12.9922 14.124L12.4152 18.7395L18.8648 11H11.9999C11.713 11 11.44 10.8768 11.2502 10.6618C11.0604 10.4468 10.972 10.1606 11.0076 9.87596L11.5845 5.26046L5.13494 13Z" fill="white"/>
</svg>
