<svg width="24" height="24" viewBox="0 0 24 24" fill="none" xmlns="http://www.w3.org/2000/svg">
<g clip-path="url(#clip0_145_116)">
<path d="M18.8502 5.55C18.7107 5.37949 18.5353 5.24182 18.3366 5.14676C18.1378 5.0517 17.9205 5.00159 17.7002 5H17.1002L17.2502 4.15C17.2783 3.948 17.2663 3.74244 17.2148 3.5451C17.1634 3.34776 17.0734 3.16252 16.9502 3C16.663 2.69597 16.2682 2.51649 15.8502 2.5H3.90023C3.63501 2.5 3.38066 2.60536 3.19312 2.79289C3.00559 2.98043 2.90023 3.23478 2.90023 3.5C2.90023 3.76522 3.00559 4.01957 3.19312 4.20711C3.38066 4.39464 3.63501 4.5 3.90023 4.5H15.1502L13.1502 15.95C12.9245 16.2687 12.7554 16.6239 12.6502 17H10.3502C10.1326 16.2809 9.68944 15.6509 9.08616 15.2032C8.48287 14.7554 7.75152 14.5137 7.00023 14.5137C6.24894 14.5137 5.51759 14.7554 4.9143 15.2032C4.31101 15.6509 3.86782 16.2809 3.65023 17H3.10023L3.35023 15.55C3.39409 15.2917 3.33485 15.0266 3.18525 14.8115C3.03565 14.5965 2.80763 14.4487 2.55023 14.4C2.29196 14.3561 2.02679 14.4154 1.81174 14.565C1.59668 14.7146 1.44892 14.9426 1.40023 15.2L1.00023 17.35C0.969507 17.5556 0.984979 17.7656 1.04552 17.9645C1.10606 18.1634 1.21015 18.3463 1.35023 18.5C1.47919 18.6537 1.63969 18.7779 1.82085 18.8642C2.00202 18.9505 2.1996 18.9968 2.40023 19H3.65023C3.86782 19.7191 4.31101 20.3491 4.9143 20.7968C5.51759 21.2446 6.24894 21.4863 7.00023 21.4863C7.75152 21.4863 8.48287 21.2446 9.08616 20.7968C9.68944 20.3491 10.1326 19.7191 10.3502 19H12.6502C12.8678 19.7191 13.311 20.3491 13.9143 20.7968C14.5176 21.2446 15.2489 21.4863 16.0002 21.4863C16.7515 21.4863 17.4829 21.2446 18.0862 20.7968C18.6894 20.3491 19.1326 19.7191 19.3502 19H20.3502C20.726 18.9929 21.0873 18.8537 21.3707 18.6068C21.6541 18.36 21.8416 18.0212 21.9002 17.65L23.0002 11.25L18.8502 5.55ZM7.00023 19.5C6.6024 19.5 6.22087 19.342 5.93957 19.0607C5.65826 18.7794 5.50023 18.3978 5.50023 18C5.50023 17.6022 5.65826 17.2206 5.93957 16.9393C6.22087 16.658 6.6024 16.5 7.00023 16.5C7.39805 16.5 7.77958 16.658 8.06089 16.9393C8.34219 17.2206 8.50023 17.6022 8.50023 18C8.50023 18.3978 8.34219 18.7794 8.06089 19.0607C7.77958 19.342 7.39805 19.5 7.00023 19.5ZM16.7502 7H17.4002L20.3502 11H16.0502L16.7502 7ZM16.0002 19.5C15.6024 19.5 15.2209 19.342 14.9396 19.0607C14.6583 18.7794 14.5002 18.3978 14.5002 18C14.5002 17.6022 14.6583 17.2206 14.9396 16.9393C15.2209 16.658 15.6024 16.5 16.0002 16.5C16.3981 16.5 16.7796 16.658 17.0609 16.9393C17.3422 17.2206 17.5002 17.6022 17.5002 18C17.5002 18.3978 17.3422 18.7794 17.0609 19.0607C16.7796 19.342 16.3981 19.5 16.0002 19.5ZM20.0002 17H19.3502C19.1351 16.2784 18.6929 15.6454 18.0894 15.195C17.4859 14.7446 16.7533 14.5009 16.0002 14.5H15.4502L15.7002 12.95H20.6502L20.0002 17Z" fill="white"/>
<path d="M2 7.5H7C7.26522 7.5 7.51957 7.39464 7.70711 7.20711C7.89464 7.01957 8 6.76522 8 6.5C8 6.23478 7.89464 5.98043 7.70711 5.79289C7.51957 5.60536 7.26522 5.5 7 5.5H2C1.73478 5.5 1.48043 5.60536 1.29289 5.79289C1.10536 5.98043 1 6.23478 1 6.5C1 6.76522 1.10536 7.01957 1.29289 7.20711C1.48043 7.39464 1.73478 7.5 2 7.5Z" fill="white"/>
<path d="M7.5 9.5C7.5 9.23478 7.39464 8.98043 7.20711 8.79289C7.01957 8.60536 6.76522 8.5 6.5 8.5H2.5C2.23478 8.5 1.98043 8.60536 1.79289 8.79289C1.60536 8.98043 1.5 9.23478 1.5 9.5C1.5 9.76522 1.60536 10.0196 1.79289 10.2071C1.98043 10.3946 2.23478 10.5 2.5 10.5H6.5C6.76522 10.5 7.01957 10.3946 7.20711 10.2071C7.39464 10.0196 7.5 9.76522 7.5 9.5Z" fill="white"/>
<path d="M3 11.5C2.73478 11.5 2.48043 11.6054 2.29289 11.7929C2.10536 11.9804 2 12.2348 2 12.5C2 12.7652 2.10536 13.0196 2.29289 13.2071C2.48043 13.3946 2.73478 13.5 3 13.5H6C6.26522 13.5 6.51957 13.3946 6.70711 13.2071C6.89464 13.0196 7 12.7652 7 12.5C7 12.2348 6.89464 11.9804 6.70711 11.7929C6.51957 11.6054 6.26522 11.5 6 11.5H3Z" fill="white"/>
</g>
<defs>
<clipPath id="clip0_145_116">
<rect width="24" height="24" fill="white"/>
</clipPath>
</defs>
</svg>
