<svg width="48" height="48" viewBox="0 0 48 48" fill="none" xmlns="http://www.w3.org/2000/svg">
<g clip-path="url(#clip0_145_61)">
<path d="M24.768 19.2C24.56 19.2064 24.36 19.2928 24.2128 19.4432L19.992 23.6512L17.392 21.0592C16.664 20.3008 15.488 21.472 16.248 22.1984L19.4208 25.3632C19.736 25.6784 20.248 25.6784 20.5648 25.3632L25.3568 20.584C25.8848 20.072 25.496 19.2 24.7696 19.2H24.768ZM0.8 25.6H5.6C6.0432 25.6 6.4 25.9568 6.4 26.4C6.4 26.8432 6.0432 27.2 5.6 27.2H0.8C0.3568 27.2 0 26.8432 0 26.4C0 25.9568 0.3568 25.6 0.8 25.6ZM0.8 19.2H5.6C6.0432 19.2 6.4 19.5568 6.4 20C6.4 20.4432 6.0432 20.8 5.6 20.8H0.8C0.3568 20.8 0 20.4432 0 20C0 19.5568 0.3568 19.2 0.8 19.2ZM0.8 12.8H5.6C6.0432 12.8 6.4 13.1568 6.4 13.6C6.4 14.0432 6.0432 14.4 5.6 14.4H0.8C0.3568 14.4 0 14.0432 0 13.6C0 13.1568 0.3568 12.8 0.8 12.8ZM39.2 30.4C37 30.4 35.2 32.2 35.2 34.4C35.2 36.6 37 38.4 39.2 38.4C41.4 38.4 43.2 36.6 43.2 34.4C43.2 32.2 41.4 30.4 39.2 30.4ZM39.2 32C40.5344 32 41.6 33.0656 41.6 34.4C41.6 35.7344 40.5344 36.8 39.2 36.8C37.8656 36.8 36.8 35.7344 36.8 34.4C36.8 33.0656 37.8656 32 39.2 32ZM18.4 30.4C16.2 30.4 14.4 32.2 14.4 34.4C14.4 36.6 16.2 38.4 18.4 38.4C20.6 38.4 22.4 36.6 22.4 34.4C22.4 32.2 20.6 30.4 18.4 30.4ZM18.4 32C19.7344 32 20.8 33.0656 20.8 34.4C20.8 35.7344 19.7344 36.8 18.4 36.8C17.0656 36.8 16 35.7344 16 34.4C16 33.0656 17.0656 32 18.4 32ZM10.4 9.60001C9.0848 9.60001 8 10.6848 8 12V29.6C8 30.9152 9.0848 32 10.4 32H13.6C14.6816 32.016 14.6816 30.384 13.6 30.4H10.4C9.9424 30.4 9.6 30.0576 9.6 29.6V12C9.6 11.5424 9.9424 11.2 10.4 11.2H31.2C31.6576 11.2 32 11.5424 32 12V30.4H23.2C22.144 30.4 22.1632 32.016 23.2 32H34.4C35.456 32 35.4464 30.4 34.4 30.4H33.6V16H40.3632L46.4 25.4336V29.6C46.4 30.0576 46.0576 30.4 45.6 30.4H44C42.9536 30.4 42.9536 32 44 32H45.6C46.9152 32 48 30.9152 48 29.6V25.2C48 25.048 47.9568 24.896 47.8752 24.768L41.4752 14.768C41.328 14.5392 41.0752 14.4 40.8 14.4H33.6V12C33.6 10.6848 32.5152 9.60001 31.2 9.60001H10.4Z" fill="#373737"/>
</g>
<defs>
<clipPath id="clip0_145_61">
<rect width="48" height="48" fill="white"/>
</clipPath>
</defs>
</svg>
