<svg width="48" height="48" viewBox="0 0 48 48" fill="none" xmlns="http://www.w3.org/2000/svg">
<path d="M23.5 8C32.6127 8 40 15.3873 40 24.5C40 33.6127 32.6127 41 23.5 41C14.3873 41 7 33.6127 7 24.5C7 15.3873 14.3873 8 23.5 8ZM23.5 10.0625C15.5264 10.0625 9.0625 16.5264 9.0625 24.5C9.0625 32.4736 15.5264 38.9375 23.5 38.9375C31.4736 38.9375 37.9375 32.4736 37.9375 24.5C37.9375 16.5264 31.4736 10.0625 23.5 10.0625ZM24.5312 17.2812L24.5318 24.0722L30.969 30.5106L29.5106 31.969L22.4686 24.927L22.4665 24.429L22.4689 24.4258L22.4688 17.2812H24.5312Z" fill="#373737"/>
</svg>
