<svg width="173" height="42" viewBox="0 0 173 42" fill="none" xmlns="http://www.w3.org/2000/svg">
<g clip-path="url(#clip0_145_44)">
<path fill-rule="evenodd" clip-rule="evenodd" d="M10.7782 8.46641C10.9943 7.98006 11.4766 7.66667 12.0088 7.66667H22.6451C23.6462 7.66667 24.2974 8.72015 23.8497 9.61559L20.8242 15.6667H25.3013C26.501 15.6667 27.1018 17.1172 26.2535 17.9656L10.3162 33.9029C9.31135 34.9077 7.63703 33.8728 8.08639 32.5248L11.4835 22.3333H6.68729C5.71275 22.3333 5.06091 21.3303 5.45669 20.4397L10.7782 8.46641Z" fill="#FFB841"/>
</g>
<path d="M44.288 31.352C42.752 31.352 41.504 31.1387 40.544 30.712C39.6053 30.2853 38.88 29.6987 38.368 28.952C37.856 28.184 37.5147 27.2773 37.344 26.232C37.1733 25.1867 37.0773 24.0347 37.056 22.776H41.536C41.5573 24.76 41.7813 26.1467 42.208 26.936C42.656 27.7253 43.3707 28.12 44.352 28.12C44.9707 28.12 45.472 27.9707 45.856 27.672C46.2613 27.3733 46.5813 26.936 46.816 26.36C47.0507 25.784 47.2107 25.0587 47.296 24.184C47.3813 23.3093 47.4347 22.296 47.456 21.144H42.272V17.432H47.424C47.36 15.256 47.104 13.6453 46.656 12.6C46.2293 11.5547 45.4613 11.032 44.352 11.032C43.456 11.032 42.7947 11.3627 42.368 12.024C41.9627 12.6853 41.7387 13.752 41.696 15.224H37.216C37.2373 14.008 37.376 12.9307 37.632 11.992C37.888 11.0533 38.2933 10.2747 38.848 9.656C39.424 9.016 40.16 8.536 41.056 8.216C41.952 7.87467 43.0507 7.704 44.352 7.704C46.1867 7.704 47.616 8.056 48.64 8.76C49.6853 9.44267 50.4533 10.3493 50.944 11.48C51.456 12.6107 51.7653 13.8907 51.872 15.32C52 16.7493 52.064 18.2 52.064 19.672C52.064 21.144 52 22.584 51.872 23.992C51.7653 25.4 51.456 26.648 50.944 27.736C50.432 28.824 49.6533 29.6987 48.608 30.36C47.5627 31.0213 46.1227 31.352 44.288 31.352ZM54.6595 13.784H59.0755V20.152H63.2995V13.784H67.7155V31H63.2995V23.672H59.0755V31H54.6595V13.784ZM76.6755 31.352C75.0755 31.352 73.8275 31.0853 72.9315 30.552C72.0355 29.9973 71.3742 29.2933 70.9475 28.44C70.5208 27.5653 70.2542 26.584 70.1475 25.496C70.0622 24.408 70.0195 23.32 70.0195 22.232C70.0195 21.08 70.0942 19.9707 70.2435 18.904C70.4142 17.8373 70.7342 16.888 71.2035 16.056C71.6942 15.224 72.3875 14.5627 73.2835 14.072C74.1795 13.5813 75.3742 13.336 76.8675 13.336C78.1475 13.336 79.1928 13.5493 80.0035 13.976C80.8355 14.3813 81.4862 14.968 81.9555 15.736C82.4248 16.4827 82.7448 17.4 82.9155 18.488C83.0862 19.5547 83.1715 20.7493 83.1715 22.072V23.064H74.4355V24.44C74.4355 24.952 74.4675 25.4533 74.5315 25.944C74.6168 26.4133 74.7448 26.84 74.9155 27.224C75.0862 27.5867 75.3102 27.8853 75.5875 28.12C75.8648 28.3333 76.2062 28.44 76.6115 28.44C77.3582 28.44 77.9022 28.1733 78.2435 27.64C78.5848 27.1067 78.8195 26.296 78.9475 25.208H82.9155C82.8302 27.2133 82.2968 28.7387 81.3155 29.784C80.3555 30.8293 78.8088 31.352 76.6755 31.352ZM78.9475 20.44C78.9262 19.7787 78.8835 19.2027 78.8195 18.712C78.7555 18.2 78.6382 17.7733 78.4675 17.432C78.3182 17.0693 78.0942 16.8027 77.7955 16.632C77.5182 16.44 77.1555 16.344 76.7075 16.344C76.2595 16.344 75.8862 16.4507 75.5875 16.664C75.3102 16.856 75.0862 17.1227 74.9155 17.464C74.7448 17.784 74.6168 18.1467 74.5315 18.552C74.4675 18.9573 74.4355 19.3627 74.4355 19.768V20.44H78.9475ZM85.472 13.784H89.696V15.608H89.76C90.2507 14.7973 90.7947 14.2213 91.392 13.88C92.0107 13.5173 92.768 13.336 93.664 13.336C95.4773 13.336 96.8107 14.0507 97.664 15.48C98.5173 16.888 98.944 19.192 98.944 22.392C98.944 25.592 98.5173 27.8853 97.664 29.272C96.8107 30.6587 95.4773 31.352 93.664 31.352C92.832 31.352 92.1173 31.2027 91.52 30.904C90.944 30.584 90.4213 30.0827 89.952 29.4H89.888V36.536H85.472V13.784ZM92.224 28.056C93.184 28.056 93.8027 27.5867 94.08 26.648C94.3787 25.688 94.528 24.2693 94.528 22.392C94.528 20.5147 94.3787 19.1067 94.08 18.168C93.8027 17.208 93.184 16.728 92.224 16.728C91.2427 16.728 90.6027 17.208 90.304 18.168C90.0267 19.1067 89.888 20.5147 89.888 22.392C89.888 24.2693 90.0267 25.688 90.304 26.648C90.6027 27.5867 91.2427 28.056 92.224 28.056ZM101.568 13.784H112.096V17.112H105.984V31H101.568V13.784ZM119.707 31.352C118.107 31.352 116.859 31.0853 115.963 30.552C115.067 29.9973 114.405 29.2933 113.979 28.44C113.552 27.5653 113.285 26.584 113.179 25.496C113.093 24.408 113.051 23.32 113.051 22.232C113.051 21.08 113.125 19.9707 113.275 18.904C113.445 17.8373 113.765 16.888 114.235 16.056C114.725 15.224 115.419 14.5627 116.315 14.072C117.211 13.5813 118.405 13.336 119.899 13.336C121.179 13.336 122.224 13.5493 123.035 13.976C123.867 14.3813 124.517 14.968 124.987 15.736C125.456 16.4827 125.776 17.4 125.947 18.488C126.117 19.5547 126.203 20.7493 126.203 22.072V23.064H117.467V24.44C117.467 24.952 117.499 25.4533 117.563 25.944C117.648 26.4133 117.776 26.84 117.947 27.224C118.117 27.5867 118.341 27.8853 118.619 28.12C118.896 28.3333 119.237 28.44 119.643 28.44C120.389 28.44 120.933 28.1733 121.275 27.64C121.616 27.1067 121.851 26.296 121.979 25.208H125.947C125.861 27.2133 125.328 28.7387 124.347 29.784C123.387 30.8293 121.84 31.352 119.707 31.352ZM121.979 20.44C121.957 19.7787 121.915 19.2027 121.851 18.712C121.787 18.2 121.669 17.7733 121.499 17.432C121.349 17.0693 121.125 16.8027 120.827 16.632C120.549 16.44 120.187 16.344 119.739 16.344C119.291 16.344 118.917 16.4507 118.619 16.664C118.341 16.856 118.117 17.1227 117.947 17.464C117.776 17.784 117.648 18.1467 117.563 18.552C117.499 18.9573 117.467 19.3627 117.467 19.768V20.44H121.979ZM131.543 17.112H127.159V13.784H140.311V17.112H135.927V31H131.543V17.112ZM141.91 13.784H146.07V24.632L150.742 13.784H155.414V31H151.222V20.216L146.55 31H141.91V13.784ZM158.347 13.784H162.763V20.888L167.307 13.784H172.107L167.179 20.92L172.811 31H167.915L164.459 24.344L162.763 26.712V31H158.347V13.784Z" fill="#373737"/>
<rect x="36" y="39" width="137" height="3" fill="#E04D4D"/>
<defs>
<clipPath id="clip0_145_44">
<rect width="32" height="32" fill="white" transform="translate(0 5)"/>
</clipPath>
</defs>
</svg>
